<mxfile host="app.diagrams.net" agent="Mozilla/5.0 (Windows NT 10.0; Win64; x64) AppleWebKit/537.36 (KHTML, like Gecko) Chrome/140.0.0.0 Safari/537.36" version="28.2.5">
  <diagram name="Página-1" id="6QhGGNZVNEoWDrbJLgrw">
    <mxGraphModel dx="864" dy="502" grid="1" gridSize="10" guides="1" tooltips="1" connect="1" arrows="1" fold="1" page="1" pageScale="1" pageWidth="827" pageHeight="1169" math="0" shadow="0">
      <root>
        <mxCell id="0" />
        <mxCell id="1" parent="0" />
        <mxCell id="BrrVMTTObfRiRCVzENcV-1" value="Inicio" style="strokeWidth=2;html=1;shape=mxgraph.flowchart.terminator;whiteSpace=wrap;" vertex="1" parent="1">
          <mxGeometry x="364" y="20" width="100" height="60" as="geometry" />
        </mxCell>
        <mxCell id="BrrVMTTObfRiRCVzENcV-2" value="Fin" style="strokeWidth=2;html=1;shape=mxgraph.flowchart.terminator;whiteSpace=wrap;" vertex="1" parent="1">
          <mxGeometry x="364" y="670" width="100" height="60" as="geometry" />
        </mxCell>
        <mxCell id="BrrVMTTObfRiRCVzENcV-3" value="&amp;lt;nombre&amp;gt;" style="shape=parallelogram;html=1;strokeWidth=2;perimeter=parallelogramPerimeter;whiteSpace=wrap;rounded=1;arcSize=12;size=0.23;" vertex="1" parent="1">
          <mxGeometry x="306.75" y="250" width="214.5" height="40" as="geometry" />
        </mxCell>
        <mxCell id="BrrVMTTObfRiRCVzENcV-10" style="edgeStyle=none;curved=1;rounded=0;orthogonalLoop=1;jettySize=auto;html=1;entryX=0.5;entryY=0;entryDx=0;entryDy=0;fontSize=12;startSize=8;endSize=8;" edge="1" parent="1" source="BrrVMTTObfRiRCVzENcV-8" target="BrrVMTTObfRiRCVzENcV-3">
          <mxGeometry relative="1" as="geometry" />
        </mxCell>
        <mxCell id="BrrVMTTObfRiRCVzENcV-8" value="Introduce tu nombre" style="strokeWidth=2;html=1;shape=mxgraph.flowchart.document2;whiteSpace=wrap;size=0.25;" vertex="1" parent="1">
          <mxGeometry x="341" y="130" width="146" height="60" as="geometry" />
        </mxCell>
        <mxCell id="BrrVMTTObfRiRCVzENcV-9" style="edgeStyle=none;curved=1;rounded=0;orthogonalLoop=1;jettySize=auto;html=1;exitX=0.5;exitY=1;exitDx=0;exitDy=0;exitPerimeter=0;entryX=0.5;entryY=0;entryDx=0;entryDy=0;entryPerimeter=0;fontSize=12;startSize=8;endSize=8;" edge="1" parent="1" source="BrrVMTTObfRiRCVzENcV-1" target="BrrVMTTObfRiRCVzENcV-8">
          <mxGeometry relative="1" as="geometry" />
        </mxCell>
        <mxCell id="BrrVMTTObfRiRCVzENcV-14" value="" style="edgeStyle=none;curved=1;rounded=0;orthogonalLoop=1;jettySize=auto;html=1;fontSize=12;startSize=8;endSize=8;" edge="1" parent="1" source="BrrVMTTObfRiRCVzENcV-12" target="BrrVMTTObfRiRCVzENcV-2">
          <mxGeometry relative="1" as="geometry" />
        </mxCell>
        <mxCell id="BrrVMTTObfRiRCVzENcV-12" value="Pasa, &amp;lt;nombre&amp;gt;" style="strokeWidth=2;html=1;shape=mxgraph.flowchart.document2;whiteSpace=wrap;size=0.25;" vertex="1" parent="1">
          <mxGeometry x="341" y="550" width="146" height="60" as="geometry" />
        </mxCell>
        <mxCell id="BrrVMTTObfRiRCVzENcV-16" value="nombre==maria" style="strokeWidth=2;html=1;shape=mxgraph.flowchart.decision;whiteSpace=wrap;" vertex="1" parent="1">
          <mxGeometry x="336" y="376" width="156" height="100" as="geometry" />
        </mxCell>
        <mxCell id="BrrVMTTObfRiRCVzENcV-17" style="edgeStyle=none;curved=1;rounded=0;orthogonalLoop=1;jettySize=auto;html=1;exitX=0.5;exitY=1;exitDx=0;exitDy=0;entryX=0.5;entryY=0;entryDx=0;entryDy=0;entryPerimeter=0;fontSize=12;startSize=8;endSize=8;" edge="1" parent="1" source="BrrVMTTObfRiRCVzENcV-3" target="BrrVMTTObfRiRCVzENcV-16">
          <mxGeometry relative="1" as="geometry" />
        </mxCell>
        <mxCell id="BrrVMTTObfRiRCVzENcV-18" value="No estás autorizado/a." style="strokeWidth=2;html=1;shape=mxgraph.flowchart.document2;whiteSpace=wrap;size=0.25;" vertex="1" parent="1">
          <mxGeometry x="521.25" y="550" width="146" height="60" as="geometry" />
        </mxCell>
        <mxCell id="BrrVMTTObfRiRCVzENcV-19" style="edgeStyle=none;curved=1;rounded=0;orthogonalLoop=1;jettySize=auto;html=1;exitX=0.5;exitY=1;exitDx=0;exitDy=0;exitPerimeter=0;entryX=0.5;entryY=0;entryDx=0;entryDy=0;entryPerimeter=0;fontSize=12;startSize=8;endSize=8;" edge="1" parent="1" source="BrrVMTTObfRiRCVzENcV-16" target="BrrVMTTObfRiRCVzENcV-12">
          <mxGeometry relative="1" as="geometry" />
        </mxCell>
        <mxCell id="BrrVMTTObfRiRCVzENcV-20" value="true" style="text;html=1;align=center;verticalAlign=middle;resizable=0;points=[];autosize=1;strokeColor=none;fillColor=none;fontSize=16;" vertex="1" parent="1">
          <mxGeometry x="370" y="470" width="50" height="30" as="geometry" />
        </mxCell>
        <mxCell id="BrrVMTTObfRiRCVzENcV-27" style="edgeStyle=orthogonalEdgeStyle;rounded=0;orthogonalLoop=1;jettySize=auto;html=1;entryX=0.5;entryY=0;entryDx=0;entryDy=0;entryPerimeter=0;fontSize=12;startSize=8;endSize=8;" edge="1" parent="1" source="BrrVMTTObfRiRCVzENcV-18" target="BrrVMTTObfRiRCVzENcV-2">
          <mxGeometry relative="1" as="geometry">
            <Array as="points">
              <mxPoint x="594" y="630" />
              <mxPoint x="414" y="630" />
            </Array>
          </mxGeometry>
        </mxCell>
        <mxCell id="BrrVMTTObfRiRCVzENcV-28" value="false" style="text;html=1;align=center;verticalAlign=middle;resizable=0;points=[];autosize=1;strokeColor=none;fillColor=none;fontSize=16;" vertex="1" parent="1">
          <mxGeometry x="500" y="395" width="60" height="30" as="geometry" />
        </mxCell>
        <mxCell id="BrrVMTTObfRiRCVzENcV-30" style="edgeStyle=orthogonalEdgeStyle;rounded=0;orthogonalLoop=1;jettySize=auto;html=1;exitX=1;exitY=0.5;exitDx=0;exitDy=0;exitPerimeter=0;entryX=0.5;entryY=0;entryDx=0;entryDy=0;entryPerimeter=0;fontSize=12;startSize=8;endSize=8;" edge="1" parent="1" source="BrrVMTTObfRiRCVzENcV-16" target="BrrVMTTObfRiRCVzENcV-18">
          <mxGeometry relative="1" as="geometry" />
        </mxCell>
      </root>
    </mxGraphModel>
  </diagram>
</mxfile>
